<svg xmlns="http://www.w3.org/2000/svg" width="1920" height="1080" viewBox="0 0 1920 1080" version="1.1"><path d="M -0 540.001 L -0 1080.001 960.250 1079.751 L 1920.500 1079.500 1920.751 539.750 L 1921.002 0 960.501 0 L 0 0 -0 540.001 M 0.496 540.500 C 0.496 837.500, 0.610 958.851, 0.750 810.168 C 0.890 661.485, 0.890 418.485, 0.750 270.168 C 0.610 121.851, 0.496 243.500, 0.496 540.500 M 1091 309.589 C 1061.025 313.690, 1006.701 321.052, 970.280 325.948 C 920.341 332.662, 903.312 335.293, 901.014 336.651 C 899.339 337.640, 896.738 340.261, 895.234 342.475 L 892.500 346.500 892.208 376.160 L 891.917 405.821 895.708 405.380 C 897.794 405.138, 919.975 403.143, 945 400.947 C 970.025 398.751, 1005.360 395.622, 1023.522 393.995 C 1061.416 390.598, 1062.033 390.647, 1068.701 397.571 C 1076.320 405.481, 1076 400.858, 1076 503.162 L 1076 593.962 1078.250 594.465 C 1083.551 595.650, 1149.207 603.999, 1153.157 603.990 C 1159.668 603.976, 1167.298 600.018, 1170.686 594.899 L 1173.500 590.646 1173.760 454 L 1174.021 317.354 1171.683 312.927 C 1168.120 306.182, 1161.629 302.577, 1152.597 302.328 C 1148.261 302.209, 1124.296 305.034, 1091 309.589 M 961.500 422.055 C 881.666 426.959, 887.353 426.313, 882.901 430.987 C 880.898 433.091, 878.764 436.701, 878.088 439.133 C 876.607 444.460, 875.493 466.131, 876.392 472.136 L 877.046 476.500 887.273 476.401 C 892.898 476.347, 905.675 476.572, 915.667 476.901 C 933.834 477.500, 933.834 477.500, 938.112 480.509 C 940.627 482.278, 943.308 485.370, 944.615 488.009 C 946.827 492.474, 946.842 492.863, 947.326 555.857 C 947.594 590.703, 948.193 619.549, 948.657 619.960 C 949.121 620.371, 969.443 626.902, 993.817 634.473 C 1028.158 645.141, 1038.916 648.113, 1041.608 647.676 C 1047.089 646.787, 1051.414 643.485, 1054.577 637.775 L 1057.500 632.500 1057.200 537.500 C 1056.869 432.598, 1057.069 435.899, 1050.523 426.880 C 1045.798 420.371, 1040.418 417.966, 1030.934 418.123 C 1026.845 418.191, 995.600 419.961, 961.500 422.055 M 874 492.998 C 867.125 493.307, 860.696 493.938, 859.713 494.401 C 858.730 494.864, 857.155 496.650, 856.213 498.371 C 854.669 501.192, 854.472 506.619, 854.215 553.425 C 854.020 589.041, 854.284 607.050, 855.055 610.764 C 856.999 620.129, 859.513 621.763, 889.491 633.138 C 903.787 638.562, 916.759 643, 918.318 643 C 920.119 643, 922.221 641.933, 924.077 640.077 L 927 637.154 927 569.811 C 927 506.423, 926.892 502.264, 925.165 498.984 C 921.978 492.932, 918.635 491.976, 901.500 492.222 C 893.250 492.340, 880.875 492.689, 874 492.998 M 476.348 684.420 C 462.874 687.688, 452.401 696.374, 449.372 706.792 C 445.798 719.086, 449.782 731.750, 459.541 739.119 C 465.622 743.710, 473.324 746.717, 490 751.010 C 496.875 752.781, 504.525 755.221, 507 756.433 C 520.123 762.860, 518.727 778.516, 504.486 784.611 C 498.461 787.190, 485.656 787.027, 480.500 784.306 C 475.127 781.470, 472.870 778.814, 468.647 770.354 C 464.687 762.422, 461.150 759, 456.912 759 C 442.540 759, 442.519 778.858, 456.876 792.287 C 466.066 800.883, 476.437 804.345, 493 804.345 C 514.591 804.345, 530.072 796.659, 537.052 782.474 C 539.178 778.154, 539.500 776.119, 539.500 767 C 539.500 754.957, 538.176 751.176, 531.684 744.684 C 526.586 739.586, 518.391 735.870, 502.500 731.450 C 478.851 724.873, 478.685 724.810, 474.750 720.932 C 468.147 714.423, 470.208 706.625, 479.678 702.290 C 484.511 700.077, 486.210 699.813, 493.053 700.209 C 502.905 700.780, 507.069 703.297, 511.934 711.623 C 516.624 719.650, 518.770 721.866, 522.538 722.573 C 526.273 723.274, 531.070 721.166, 533.439 717.783 C 534.298 716.558, 535 713.616, 535 711.245 C 535 699.510, 524.127 688.612, 508.307 684.492 C 501.369 682.685, 483.665 682.645, 476.348 684.420 M 662.766 685.917 L 659.500 688.835 659.200 740.167 C 659.036 768.400, 659.166 792.949, 659.490 794.721 C 660.851 802.154, 667.907 806.319, 674.484 803.571 C 681.677 800.566, 681.464 802.179, 681.815 748.045 C 681.988 721.345, 681.833 697.061, 681.471 694.080 C 680.566 686.624, 677.008 683, 670.593 683 C 666.966 683, 665.362 683.598, 662.766 685.917 M 906.273 687.527 C 903.003 690.797, 902.785 691.396, 903.275 695.744 C 904.002 702.194, 907.293 705, 914.133 705 C 918.349 705, 919.622 704.531, 922.077 702.077 C 924.470 699.684, 925 698.310, 925 694.500 C 925 690.690, 924.470 689.316, 922.077 686.923 C 919.679 684.526, 918.313 684, 914.477 684 C 910.458 684, 909.303 684.497, 906.273 687.527 M 1386.388 685.948 C 1385.227 686.435, 1383.314 688.057, 1382.138 689.552 C 1380.016 692.249, 1380 692.664, 1380 744.267 C 1380 795.099, 1380.046 796.339, 1382.069 799.612 C 1386.136 806.191, 1396.499 806.227, 1401.393 799.679 C 1403.365 797.039, 1403.519 795.424, 1403.803 774.430 L 1404.106 752 1409.004 752 C 1411.698 752, 1416.286 752.498, 1419.201 753.107 C 1426.880 754.712, 1433.154 761.575, 1445.248 781.600 C 1450.596 790.454, 1456.143 798.870, 1457.574 800.301 C 1463.486 806.213, 1473.213 805.913, 1477.084 799.699 C 1479.673 795.545, 1479.143 792.789, 1473.587 781.500 C 1468.297 770.752, 1461.211 761.130, 1453.567 754.317 L 1447.967 749.326 1452.234 748.052 C 1468.420 743.216, 1476.345 733.211, 1476.448 717.479 C 1476.494 710.375, 1476.125 708.695, 1473.215 702.785 C 1469.642 695.528, 1465.290 691.403, 1457.330 687.729 C 1452.690 685.588, 1451.242 685.491, 1420.500 685.281 C 1402.900 685.160, 1387.550 685.460, 1386.388 685.948 M 1505.323 686.569 C 1499.078 689.734, 1498.994 690.520, 1499.056 744.770 C 1499.097 779.825, 1499.448 794.456, 1500.306 796.906 C 1501.997 801.731, 1505.928 804.333, 1511.526 804.333 C 1515.308 804.333, 1516.664 803.798, 1519.133 801.329 C 1523.235 797.227, 1523.948 793.182, 1523.976 773.874 L 1524 757.248 1541.750 756.753 C 1556.235 756.348, 1560.734 755.861, 1566.208 754.101 C 1582.925 748.729, 1591.166 735.595, 1589.730 716.612 C 1588.973 706.610, 1585.993 700.108, 1579.404 694.086 C 1570.627 686.065, 1568.790 685.688, 1536.500 685.297 C 1512.285 685.004, 1508.071 685.176, 1505.323 686.569 M 1404 719.034 L 1404 735.227 1421.250 734.814 C 1440.454 734.355, 1446.060 732.890, 1449.666 727.388 C 1452.326 723.327, 1452.179 714.058, 1449.395 710.323 C 1444.837 704.209, 1442.270 703.532, 1422.250 703.171 L 1404 702.841 1404 719.034 M 1524 721.056 L 1524 739.300 1537.551 738.731 C 1553.121 738.079, 1558.733 736.141, 1562.835 730 C 1564.834 727.007, 1565.120 725.527, 1564.806 719.782 C 1564.376 711.920, 1562.385 708.524, 1556.435 705.500 C 1553.172 703.842, 1550.066 703.441, 1538.250 703.156 L 1524 702.812 1524 721.056 M 586.389 716.488 C 570.801 719.879, 559.560 730.706, 555.399 746.336 C 552.186 758.403, 554.284 774.983, 560.329 785.298 C 568.259 798.830, 587.340 806.791, 605.250 804.041 C 628.313 800.499, 642 783.784, 642 759.161 C 642 728.889, 617.125 709.802, 586.389 716.488 M 709.476 716.396 C 703.986 718.788, 703.549 721.011, 703.194 748.334 C 702.733 783.849, 704.339 791.475, 713.792 798.676 C 719.516 803.036, 724.777 804.304, 735 803.785 C 744.767 803.290, 751.168 800.608, 756.946 794.589 C 758.842 792.615, 760.695 791, 761.064 791 C 761.434 791, 761.980 792.818, 762.278 795.039 C 762.922 799.837, 764.414 801.856, 768.615 803.612 C 772.796 805.359, 778.431 803.798, 780.759 800.246 C 782.315 797.874, 782.532 793.843, 782.798 762.329 C 783.121 724.028, 782.733 720.182, 778.255 717.247 C 774.267 714.634, 767.738 714.958, 764.579 717.926 C 760.631 721.635, 760.012 725.768, 760 748.500 C 759.994 760.050, 759.524 771.174, 758.956 773.219 C 756.593 781.726, 748.220 787.515, 739.341 786.778 C 733.606 786.303, 730.901 784.542, 728.165 779.502 C 726.815 777.015, 726.447 771.866, 726.016 749.500 C 725.447 719.859, 725.243 718.835, 719.452 716.415 C 715.322 714.690, 713.400 714.686, 709.476 716.396 M 832.251 716.516 C 811.839 720.951, 800 737.437, 800 761.426 C 800 782.451, 810.906 797.689, 829.500 802.644 C 836.270 804.448, 851.248 804.347, 858.540 802.448 C 869.670 799.550, 879.339 791.916, 882.559 783.485 C 885.718 775.212, 881.919 767.800, 874.518 767.800 C 870.251 767.800, 868.274 769.374, 862.865 777.080 C 857.676 784.473, 852.499 787.375, 844.500 787.375 C 834.432 787.375, 827.454 782.009, 824.044 771.645 C 822.218 766.095, 823.073 749.544, 825.420 745 C 830.614 734.945, 839.486 730.583, 849.574 733.123 C 854.451 734.351, 859.610 738.664, 865.293 746.265 C 867.765 749.572, 868.581 750, 872.408 750 C 884.896 750, 886.202 736.823, 874.754 726.321 C 864.030 716.483, 848.692 712.945, 832.251 716.516 M 908.763 716.511 C 903.130 719.679, 903 720.648, 903 759.549 C 903 799.517, 903.137 800.413, 909.721 803.538 C 914.599 805.853, 920.279 804.217, 923.064 799.696 C 924.943 796.644, 925.019 794.799, 924.766 758.772 L 924.500 721.043 921.903 718.447 C 918.674 715.219, 912.640 714.330, 908.763 716.511 M 975.402 716.486 C 959.735 719.894, 947.606 731.725, 944.076 747.042 C 942.626 753.335, 942.779 767.582, 944.359 773.500 C 950.127 795.093, 969.984 807.332, 993.864 804.014 C 1021.161 800.220, 1036.092 776.283, 1029.431 746.995 C 1024.173 723.877, 1001.159 710.882, 975.402 716.486 M 1053.308 715.963 C 1052.103 716.474, 1050.303 718.133, 1049.308 719.650 C 1047.666 722.154, 1047.473 725.633, 1047.203 757.482 C 1046.977 784.216, 1047.215 793.479, 1048.203 796.433 C 1051.435 806.092, 1063.277 807.314, 1068.343 798.511 C 1069.094 797.206, 1069.676 787.725, 1070 771.500 C 1070.550 744.024, 1070.806 742.805, 1077.258 736.911 C 1083.385 731.315, 1094.853 730.972, 1099.719 736.239 C 1103.302 740.117, 1103.986 745.448, 1104.051 770 C 1104.092 785.484, 1104.520 794.662, 1105.306 796.906 C 1108.037 804.700, 1117.874 807.063, 1123.125 801.187 C 1126.898 796.963, 1127.251 793.330, 1126.848 762.851 L 1126.500 736.500 1123.699 730.796 C 1118.607 720.426, 1110.348 715.623, 1097.500 715.557 C 1086.807 715.503, 1080.513 717.764, 1073.488 724.185 L 1068 729.201 1068 725.616 C 1068 718.659, 1059.743 713.234, 1053.308 715.963 M 1177.236 715.993 C 1165.435 718.504, 1154.197 726.813, 1149.106 736.792 C 1142.699 749.351, 1142.569 770.414, 1148.823 782.644 C 1160.082 804.662, 1194.550 811.810, 1216.807 796.742 C 1222.786 792.694, 1227 786.616, 1227 782.041 C 1227 777.247, 1225.292 775.084, 1220.949 774.379 C 1217.748 773.860, 1216.731 774.357, 1210.452 779.506 C 1198.597 789.230, 1192.128 791.342, 1182.643 788.585 C 1174.652 786.262, 1169.357 779.664, 1167.598 769.837 L 1166.942 766.175 1192.721 765.808 C 1222.121 765.390, 1224.929 764.806, 1227.536 758.568 C 1229.399 754.109, 1229.381 750.882, 1227.450 743.470 C 1224.405 731.778, 1215.782 722.308, 1204.252 717.992 C 1197.742 715.556, 1184.054 714.543, 1177.236 715.993 M 1264.854 716.782 C 1256.655 719.005, 1250.517 723.133, 1246.866 728.880 C 1241.425 737.445, 1242.085 746.768, 1248.648 754.032 C 1253.236 759.111, 1260.019 762.350, 1274.629 766.438 C 1291.708 771.218, 1293.780 772.230, 1295.653 776.711 C 1297.008 779.955, 1297.039 780.836, 1295.867 782.900 C 1293.025 787.902, 1289.468 789.500, 1281.177 789.500 C 1271.440 789.500, 1266.484 786.943, 1261.413 779.304 C 1259.485 776.398, 1257.057 773.566, 1256.019 773.010 C 1252.411 771.079, 1248.008 771.838, 1244.923 774.923 C 1241.485 778.361, 1241.213 781.709, 1243.900 787.500 C 1250.772 802.312, 1274.934 808.696, 1298.330 801.883 C 1310.736 798.270, 1318.209 788.796, 1318.298 776.568 C 1318.351 769.286, 1316.617 765.540, 1310.942 760.682 C 1305.782 756.266, 1299.888 753.872, 1283.615 749.584 C 1267.371 745.303, 1262.949 742.324, 1264.380 736.624 C 1265.388 732.607, 1270.414 730.008, 1277.185 730.004 C 1285.021 729.999, 1287.545 731.198, 1294.132 738.056 C 1299.490 743.635, 1300.125 744, 1304.466 744 C 1308.102 744, 1309.642 743.449, 1311.667 741.424 C 1313.903 739.188, 1314.174 738.238, 1313.721 734.218 C 1312.966 727.522, 1306.027 721.025, 1296.422 718.022 C 1286.699 714.982, 1273.416 714.460, 1264.854 716.782 M 1179.500 732.417 C 1173.656 735.026, 1168.682 742.319, 1167.848 749.500 L 1167.500 752.500 1187.250 752.771 C 1203.223 752.990, 1207 752.786, 1207 751.703 C 1207 748.752, 1203.880 740.117, 1201.908 737.610 C 1197.258 731.698, 1186.629 729.235, 1179.500 732.417 M 590.007 733.593 C 582.630 736.792, 578.716 742.756, 577.018 753.387 C 575.772 761.184, 577.033 771.185, 579.993 776.987 C 587.466 791.634, 608.300 791.365, 615.945 776.522 C 618.031 772.474, 618.564 769.839, 618.850 762.175 C 619.256 751.294, 617.976 745.647, 613.795 739.876 C 608.683 732.819, 598.186 730.046, 590.007 733.593 M 978.500 733.417 C 968.834 737.732, 963.357 752.423, 965.993 766.963 C 968.686 781.814, 976.943 789.114, 989.381 787.641 C 1000.639 786.308, 1007.052 777.833, 1007.816 763.282 C 1008.616 748.042, 1004.429 737.914, 995.688 733.945 C 990.812 731.731, 982.827 731.486, 978.500 733.417" stroke="none" fill="#ffffff" fill-rule="evenodd"/><path d="M 876.389 460.500 C 876.390 467.650, 876.550 470.444, 876.742 466.708 C 876.935 462.973, 876.934 457.123, 876.739 453.708 C 876.545 450.294, 876.387 453.350, 876.389 460.500 M 907.750 476.743 C 911.737 476.932, 918.263 476.932, 922.250 476.743 C 926.237 476.553, 922.975 476.397, 915 476.397 C 907.025 476.397, 903.763 476.553, 907.750 476.743 M 859.942 494.472 C 854.507 497.427, 854.523 497.260, 854.215 553.425 C 854.020 589.041, 854.284 607.050, 855.055 610.764 C 856.999 620.129, 859.513 621.763, 889.491 633.138 C 903.787 638.562, 916.759 643, 918.318 643 C 920.119 643, 922.221 641.933, 924.077 640.077 C 926.997 637.157, 927 637.139, 927 624.630 L 927 612.105 912.250 607.494 C 904.138 604.957, 895.250 602.180, 892.500 601.321 C 883.586 598.539, 880.996 596.904, 878.700 592.612 C 876.534 588.564, 876.496 587.761, 876.213 540.750 L 875.926 493 869.213 493.040 C 865.447 493.062, 861.377 493.691, 859.942 494.472 M 947.461 540 C 947.461 565.025, 947.590 575.263, 947.749 562.750 C 947.908 550.238, 947.908 529.763, 947.749 517.250 C 947.590 504.738, 947.461 514.975, 947.461 540 M 1057.425 552 C 1057.425 563.825, 1057.569 568.663, 1057.746 562.750 C 1057.923 556.837, 1057.923 547.163, 1057.746 541.250 C 1057.569 535.337, 1057.425 540.175, 1057.425 552" stroke="none" fill="#ffb200" fill-rule="evenodd"/><path d="M 890.286 426.938 C 885.368 427.740, 882.613 429.957, 879.646 435.500 C 877.726 439.087, 877.470 441.384, 877.173 457.750 L 876.841 476 889.921 476 L 903 476 903 451 L 903 426 898.750 426.125 C 896.413 426.194, 892.604 426.560, 890.286 426.938 M 886.713 492.747 L 875.927 493.068 876.213 540.784 C 876.496 587.760, 876.534 588.564, 878.700 592.612 C 881.422 597.700, 882.739 598.323, 906 605.526 C 916.175 608.677, 925.063 611.471, 925.750 611.734 C 926.718 612.106, 927 608.595, 927 596.174 C 927 581.755, 926.823 580.084, 925.250 579.636 C 924.288 579.362, 920.800 578.611, 917.500 577.968 C 910.171 576.538, 906.132 574.188, 903.500 569.819 C 901.611 566.684, 901.484 564.438, 901.204 529.250 C 900.931 494.837, 900.779 492.016, 899.204 492.212 C 898.267 492.329, 892.646 492.570, 886.713 492.747 M 948.227 602.118 L 948.500 620.381 957.500 623.108 C 969.415 626.718, 1012.536 640.127, 1026.781 644.653 C 1039.172 648.590, 1042.602 648.645, 1048.493 645.004 C 1050.672 643.658, 1052.889 640.882, 1054.632 637.319 C 1056.951 632.580, 1057.428 630.124, 1057.805 620.978 L 1058.248 610.213 1054.874 609.505 C 1051 608.692, 1031.248 604.064, 1016.310 600.470 C 998.194 596.112, 962.677 587.787, 956.143 586.367 C 952.647 585.608, 949.374 584.731, 948.870 584.420 C 948.325 584.083, 948.065 591.239, 948.227 602.118 M 681.464 743.500 C 681.464 771, 681.592 782.106, 681.749 768.180 C 681.906 754.255, 681.906 731.755, 681.749 718.180 C 681.592 704.606, 681.464 716, 681.464 743.500 M 1523.413 720.500 C 1523.414 730.400, 1523.564 734.315, 1523.746 729.199 C 1523.928 724.084, 1523.927 715.984, 1523.744 711.199 C 1523.561 706.415, 1523.412 710.600, 1523.413 720.500 M 1047.450 759.500 C 1047.451 778.750, 1047.585 786.483, 1047.749 776.685 C 1047.913 766.888, 1047.912 751.138, 1047.748 741.685 C 1047.584 732.233, 1047.450 740.250, 1047.450 759.500 M 703.435 751 C 703.435 765.025, 703.575 770.763, 703.747 763.750 C 703.919 756.737, 703.919 745.263, 703.747 738.250 C 703.575 731.237, 703.435 736.975, 703.435 751 M 760.413 743.500 C 760.414 753.400, 760.564 757.315, 760.746 752.199 C 760.928 747.084, 760.927 738.984, 760.744 734.199 C 760.561 729.415, 760.412 733.600, 760.413 743.500 M 1104.425 773 C 1104.425 784.825, 1104.569 789.663, 1104.746 783.750 C 1104.923 777.837, 1104.923 768.163, 1104.746 762.250 C 1104.569 756.337, 1104.425 761.175, 1104.425 773 M 1523.413 774.500 C 1523.414 784.400, 1523.564 788.315, 1523.746 783.199 C 1523.928 778.084, 1523.927 769.984, 1523.744 765.199 C 1523.561 760.415, 1523.412 764.600, 1523.413 774.500 M 1179.250 765.747 C 1185.713 765.921, 1196.287 765.921, 1202.750 765.747 C 1209.213 765.573, 1203.925 765.430, 1191 765.430 C 1178.075 765.430, 1172.787 765.573, 1179.250 765.747" stroke="none" fill="#00932b" fill-rule="evenodd"/><path d="M 968 422.053 C 934.725 424.154, 906.487 425.901, 905.250 425.936 L 903 426 903 451 L 903 476 915.057 476 C 929.580 476, 934.632 477.137, 939.812 481.571 C 947.646 488.277, 947.438 486.832, 948 538.452 L 948.500 584.405 962 587.581 C 969.425 589.327, 993.898 595.101, 1016.383 600.412 C 1038.869 605.722, 1057.386 609.939, 1057.532 609.783 C 1057.678 609.627, 1057.468 571.250, 1057.065 524.500 C 1056.250 429.779, 1056.633 434.604, 1049.252 425.981 C 1044.829 420.814, 1039.021 418.012, 1033 418.139 C 1030.525 418.192, 1001.275 419.953, 968 422.053 M 901.451 493.268 C 901.139 494.081, 901.022 510.962, 901.192 530.782 L 901.500 566.818 904.591 570.659 C 908.369 575.354, 910.531 576.456, 919.500 578.260 L 926.500 579.668 926.762 541.687 C 927.051 499.776, 926.973 499.168, 920.682 494.569 C 917.002 491.878, 902.364 490.887, 901.451 493.268" stroke="none" fill="#d21b13" fill-rule="evenodd"/><path d="M 1101 308.469 C 1075.425 311.978, 1020.525 319.402, 979 324.967 C 894.525 336.288, 899.109 335.231, 894.483 344.446 C 892.017 349.359, 892 349.585, 892 377.196 L 892 405 894.750 405.006 C 896.263 405.009, 933.275 401.823, 977 397.927 C 1042.724 392.070, 1057.161 391.039, 1060.312 391.980 C 1065.997 393.676, 1071.576 399.252, 1073.957 405.615 C 1075.960 410.967, 1076 412.886, 1076 502.492 L 1076 593.909 1079.250 594.446 C 1099.331 597.760, 1151.450 604.048, 1155.288 603.620 C 1163.836 602.666, 1170.181 597.775, 1172.828 590.101 C 1173.701 587.567, 1174 552.531, 1174 452.547 L 1174 318.393 1171.403 313.182 C 1167.965 306.282, 1162.398 302.898, 1153.710 302.426 C 1149.827 302.215, 1130.075 304.479, 1101 308.469 M 477.063 684.555 C 458.753 688.525, 448.599 699.743, 448.599 716 C 448.599 734.111, 458.682 742.839, 488.500 750.536 C 505.430 754.906, 509.738 756.712, 513.283 760.925 C 517.911 766.425, 516.831 776.011, 511.046 780.773 C 504.312 786.315, 493.065 788.324, 483.815 785.635 C 477.123 783.689, 472.031 778.597, 468.306 770.125 C 465.202 763.065, 462.562 760.196, 458.462 759.427 C 454.591 758.701, 449.742 760.938, 447.384 764.537 C 443.597 770.317, 447.823 782.914, 456.451 791.561 C 465.345 800.477, 475.825 804.011, 493.299 803.985 C 514.999 803.954, 529.421 796.827, 536.775 782.500 C 539.767 776.671, 540.933 764.147, 539.112 757.405 C 535.482 743.963, 525.464 737.472, 496.686 729.918 C 481.547 725.943, 473.914 722.575, 472.018 719.034 C 471.458 717.988, 471 715.243, 471 712.934 C 471 705.058, 479.308 699.978, 492.116 700.022 C 502.954 700.059, 507.324 703.063, 514.401 715.341 C 517.855 721.334, 521.961 723.402, 527.417 721.895 C 531.835 720.675, 534.995 716.127, 534.986 711 C 534.973 703.042, 527.443 692.817, 518.077 688.039 C 508.535 683.171, 490.506 681.640, 477.063 684.555 M 663.669 685.045 C 662.239 686.171, 660.606 688.758, 660.040 690.795 C 658.646 695.813, 658.646 791.187, 660.040 796.205 C 662.154 803.816, 671.713 806.731, 677.694 801.587 L 680.500 799.174 680.776 745.356 C 680.977 706.072, 680.736 690.778, 679.885 688.722 C 677.598 683.201, 668.606 681.162, 663.669 685.045 M 907.111 686.560 C 901.453 691.321, 902.091 700.444, 908.307 703.659 C 912.775 705.969, 919.796 704.938, 922.717 701.543 C 925.196 698.661, 925.819 692.398, 923.970 688.945 C 921.201 683.769, 911.978 682.465, 907.111 686.560 M 1386.315 686.464 C 1379.826 689.286, 1379.918 688.381, 1380.224 746.083 L 1380.500 798.165 1383.766 801.083 C 1387.907 804.782, 1395.216 805.191, 1399.331 801.955 C 1403.274 798.853, 1403.988 794.304, 1403.994 772.250 L 1404 752 1410.750 752.044 C 1418.700 752.096, 1423.645 753.662, 1428.355 757.620 C 1431.956 760.646, 1440.072 772.372, 1449.034 787.500 C 1451.967 792.450, 1456.031 798.188, 1458.066 800.250 C 1461.291 803.519, 1462.363 804, 1466.432 804 C 1476.150 804, 1480.260 798.802, 1477.352 790.192 C 1473.598 779.078, 1465.125 766.005, 1455.407 756.331 L 1448.206 749.163 1453.353 747.500 C 1459.962 745.364, 1467.449 740.589, 1470.536 736.541 C 1476.657 728.516, 1478.140 713.334, 1473.738 703.762 C 1469.422 694.379, 1461.045 688.095, 1450.079 686.015 C 1441.591 684.405, 1390.216 684.767, 1386.315 686.464 M 1505.383 686.583 C 1499.467 689.502, 1499.527 688.966, 1499.214 742.259 C 1498.910 793.959, 1499.149 797.240, 1503.524 801.615 C 1505.419 803.510, 1506.966 804, 1511.055 804 C 1515.573 804, 1516.614 803.586, 1519.600 800.600 L 1523 797.200 1523 777.100 L 1523 757 1535.750 756.967 C 1566.202 756.889, 1578.571 752.128, 1585.962 737.637 C 1589.192 731.305, 1589.427 730.201, 1589.462 721.175 C 1589.523 705.481, 1584.601 695.894, 1573.355 689.803 C 1566.025 685.833, 1558.900 684.998, 1532.566 685.023 C 1512.963 685.041, 1507.922 685.331, 1505.383 686.583 M 1404 719.021 L 1404 735.198 1421.250 734.822 C 1436.098 734.498, 1439.127 734.156, 1443 732.368 C 1449.232 729.491, 1451.204 726.929, 1451.777 720.965 C 1452.410 714.380, 1449.937 708.747, 1445.090 705.733 C 1441.768 703.667, 1440.100 703.476, 1422.750 703.172 L 1404 702.844 1404 719.021 M 1523.227 720.750 L 1523.500 738.500 1536.500 738.485 C 1550.935 738.469, 1555.275 737.453, 1560.491 732.874 C 1566.839 727.300, 1567.298 716.073, 1561.460 709.135 C 1557.512 704.443, 1551.595 703, 1536.299 703 L 1522.954 703 1523.227 720.750 M 589.500 716.013 C 572.289 718.643, 559.898 729.777, 555.533 746.535 C 553.789 753.229, 553.563 765.391, 555.061 771.888 C 557.954 784.440, 566.287 794.872, 577.759 800.307 C 584.304 803.407, 584.893 803.500, 598 803.500 C 611.014 803.500, 611.734 803.389, 618 800.413 C 636.166 791.787, 645.538 770.632, 640.866 748.799 C 637.016 730.809, 623.846 718.605, 605.500 716.024 C 597.694 714.926, 596.621 714.925, 589.500 716.013 M 711.500 715.840 C 708.267 716.907, 706.368 718.355, 705.146 720.684 C 703.348 724.111, 703.579 780.282, 705.416 786.386 C 707.367 792.870, 710.810 797.025, 717.130 800.526 C 722.082 803.268, 723.278 803.500, 732.500 803.500 C 744.416 803.500, 749.150 801.746, 756.967 794.434 L 762 789.726 762 792.913 C 762 796.805, 764.348 801.581, 766.945 802.970 C 770.200 804.712, 776.407 804.201, 778.774 801.996 C 782.694 798.344, 783.113 793.734, 782.799 757.712 C 782.534 727.361, 782.302 723.139, 780.748 720.297 C 777.494 714.345, 768.071 713.750, 763.480 719.206 C 761.046 722.098, 761 722.484, 760.982 739.827 C 760.961 761.292, 759.755 773.914, 757.334 778.013 C 756.348 779.681, 753.771 782.273, 751.606 783.773 C 748.273 786.082, 746.641 786.500, 740.940 786.500 C 735.616 786.500, 733.749 786.083, 732.003 784.502 C 726.798 779.793, 726.535 778.288, 725.974 750 C 725.434 722.792, 724.979 719.717, 721.146 717.323 C 718.724 715.811, 713.856 715.062, 711.500 715.840 M 835.669 715.994 C 814.028 719.861, 801.671 734.354, 800.285 757.500 C 799.356 773.007, 803.487 784.532, 813.195 793.520 C 820.737 800.502, 827.530 803.094, 840.004 803.746 C 851.196 804.332, 858.332 803.063, 866.565 799.022 C 873.561 795.589, 875.603 793.912, 879.746 788.192 C 886.803 778.451, 883.811 768, 873.966 768 C 870.500 768, 866.763 771.296, 861.671 778.846 C 858.368 783.741, 852.820 786.879, 846.046 787.681 C 839.426 788.465, 831.170 784.729, 827.612 779.339 C 822.034 770.889, 820.825 758.178, 824.537 747 C 828.161 736.084, 839.117 730.069, 850.025 733.007 C 854.399 734.184, 857.971 737.232, 865.610 746.306 C 868.156 749.330, 869.386 750, 872.395 750 C 882.422 750, 885.620 739.746, 878.502 730.414 C 870.209 719.542, 851.351 713.193, 835.669 715.994 M 909.213 716.468 C 903.267 719.121, 903 720.945, 903 758.843 C 903 777.492, 903.280 794.150, 903.622 795.861 C 904.643 800.965, 908.485 804.004, 913.886 803.978 C 918.764 803.954, 921.911 802.172, 923.883 798.316 C 925.297 795.550, 925.445 725.302, 924.045 721.617 C 922.107 716.522, 914.786 713.980, 909.213 716.468 M 978.500 716.052 C 967.628 717.796, 960.771 721.270, 954.264 728.330 C 946.693 736.543, 943 746.927, 943 760 C 943 779.128, 951.110 792.764, 967 800.353 C 972.742 803.095, 974.740 803.501, 984.128 803.835 C 995.977 804.256, 1003.200 802.757, 1010.940 798.268 C 1024.459 790.428, 1032.040 774.176, 1030.655 756 C 1028.959 733.732, 1015.723 719.118, 994.469 716.047 C 986.658 714.918, 985.564 714.918, 978.500 716.052 M 1053.329 716.419 C 1051.585 717.199, 1049.657 718.773, 1049.045 719.916 C 1048.268 721.367, 1048.018 733.657, 1048.216 760.585 L 1048.500 799.175 1051.306 801.587 C 1056.341 805.917, 1064.987 804.441, 1068.224 798.699 C 1069.073 797.192, 1069.632 788.629, 1069.999 771.500 C 1070.503 748.052, 1070.676 746.236, 1072.788 742.251 C 1075.481 737.169, 1080.926 733.336, 1086.765 732.414 C 1092.535 731.502, 1099.514 734.160, 1101.517 738.033 C 1103.994 742.823, 1104.959 753.499, 1104.980 776.327 L 1105 798.154 1107.923 801.077 C 1110.292 803.446, 1111.704 804, 1115.367 804 C 1121.063 804, 1124.743 801.066, 1126.028 795.500 C 1127.171 790.553, 1127.212 751.086, 1126.085 741.367 C 1124.344 726.362, 1117.126 718.637, 1102.268 715.877 C 1092.111 713.990, 1080.745 717.507, 1072.533 725.076 L 1068.265 729.011 1067.707 724.853 C 1066.706 717.387, 1059.982 713.443, 1053.329 716.419 M 1178.638 716.100 C 1170.703 717.259, 1163.050 720.938, 1157.208 726.402 C 1139.377 743.081, 1140.202 780.187, 1158.729 794.766 C 1168.070 802.117, 1176.890 804.467, 1192.694 803.816 C 1202.225 803.424, 1204.443 802.980, 1210.060 800.343 C 1213.602 798.680, 1217.982 796.066, 1219.794 794.534 C 1225.368 789.820, 1228.620 781.097, 1226.214 777.313 C 1225.043 775.471, 1219.970 773.876, 1217.618 774.610 C 1216.453 774.974, 1213.021 777.411, 1209.990 780.026 C 1199.937 788.703, 1191.932 791.405, 1183.226 789.061 C 1175.065 786.863, 1168.045 778.100, 1167.680 769.652 L 1167.500 765.500 1194.547 765 C 1224.261 764.451, 1226.326 764.028, 1227.544 758.237 C 1227.861 756.732, 1228.292 754.652, 1228.502 753.616 C 1229.224 750.044, 1226.818 740.484, 1223.733 734.674 C 1218.470 724.759, 1208.522 718.101, 1195.914 716.056 C 1188.693 714.884, 1186.932 714.889, 1178.638 716.100 M 1268.800 716.033 C 1256.814 717.889, 1247.161 725.197, 1244.470 734.454 C 1240.190 749.178, 1248.539 758.985, 1270.500 765.029 C 1291.718 770.869, 1295.490 772.827, 1296.590 778.568 C 1297.047 780.956, 1296.596 782.326, 1294.556 784.751 C 1291.104 788.853, 1286.202 790.370, 1278.418 789.745 C 1270.334 789.097, 1266.065 786.459, 1260.980 778.970 C 1256.700 772.668, 1254.616 771.474, 1249.550 772.425 C 1240.180 774.182, 1239.880 785.328, 1248.966 794.131 C 1255.943 800.890, 1262.739 803.234, 1276.950 803.785 C 1294.320 804.458, 1305.040 801.275, 1311.965 793.387 C 1316.512 788.208, 1318 784.111, 1318 776.767 C 1318 762.684, 1310.014 756.517, 1282.682 749.494 C 1270.336 746.322, 1265.236 743.790, 1264.389 740.414 C 1262.857 734.308, 1268.728 729.677, 1278 729.677 C 1284.892 729.677, 1288.116 731.365, 1294.706 738.424 C 1299.563 743.626, 1300.220 744, 1304.502 744 C 1312.571 744, 1316.346 737.437, 1312.526 730.051 C 1307.146 719.647, 1287.056 713.207, 1268.800 716.033 M 1177.826 733.255 C 1172.864 736.287, 1170.517 739.519, 1168.606 745.954 C 1167.723 748.929, 1167 751.731, 1167 752.182 C 1167 752.632, 1176 753, 1187 753 C 1209.325 753, 1207.923 753.551, 1205.912 745.564 C 1204.570 740.237, 1199.747 734.210, 1195.357 732.376 C 1190.197 730.220, 1182.131 730.625, 1177.826 733.255 M 589.388 733.380 C 585.048 735.343, 582.179 738.594, 579.135 745 C 576.880 749.743, 576.523 751.808, 576.535 760 C 576.555 773.852, 580.603 782.004, 589.500 786.110 C 602.795 792.246, 616.205 783.571, 618.995 767.030 C 621.192 754.003, 617.646 742.029, 609.694 735.625 C 606.431 732.997, 604.931 732.517, 599.194 732.265 C 594.983 732.081, 591.346 732.494, 589.388 733.380 M 978.500 733.339 C 973.819 735.473, 969.218 740.844, 967.300 746.413 C 965.153 752.646, 964.944 765.587, 966.883 772.260 C 972.608 791.968, 998.720 793.460, 1006.015 774.496 C 1008.312 768.524, 1009.074 760.223, 1007.963 753.268 C 1006.668 745.164, 1003.819 739.739, 998.694 735.619 C 995.434 732.998, 993.926 732.517, 988.194 732.265 C 984.057 732.084, 980.354 732.494, 978.500 733.339" stroke="none" fill="#055a84" fill-rule="evenodd"/></svg>